<?xml version="1.0" encoding="UTF-8" standalone="no"?>
<!DOCTYPE svg PUBLIC "-//W3C//DTD SVG 1.1//EN" "http://www.w3.org/Graphics/SVG/1.1/DTD/svg11.dtd">
<svg width="100%" height="100%" viewBox="0 0 26 26" version="1.1" xmlns="http://www.w3.org/2000/svg" xmlns:xlink="http://www.w3.org/1999/xlink" xml:space="preserve" xmlns:serif="http://www.serif.com/" style="fill-rule:evenodd;clip-rule:evenodd;stroke-linejoin:round;stroke-miterlimit:2;">
    <g transform="matrix(0.51,0,0,0.51,6.37,7.2475)">
        <path d="M9.75,10.833L9.75,13L7.583,13L7.583,10.833L9.75,10.833M14.083,10.833L14.083,13L11.917,13L11.917,10.833L14.083,10.833M18.417,10.833L18.417,13L16.25,13L16.25,10.833L18.417,10.833M20.583,3.25C21.772,3.25 22.75,4.228 22.75,5.417L22.75,20.583C22.75,21.772 21.772,22.75 20.583,22.75L5.417,22.75C4.214,22.75 3.25,21.775 3.25,20.583L3.25,5.417C3.25,4.228 4.228,3.25 5.417,3.25L6.5,3.25L6.5,1.083L8.667,1.083L8.667,3.25L17.333,3.25L17.333,1.083L19.5,1.083L19.5,3.25L20.583,3.25M20.583,20.583L20.583,8.667L5.417,8.667L5.417,20.583L20.583,20.583M9.75,15.167L9.75,17.333L7.583,17.333L7.583,15.167L9.75,15.167M14.083,15.167L14.083,17.333L11.917,17.333L11.917,15.167L14.083,15.167M18.417,15.167L18.417,17.333L16.25,17.333L16.25,15.167L18.417,15.167Z" style="fill:white;fill-rule:nonzero;"/>
    </g>
</svg>
