<?xml version="1.0" encoding="UTF-8" standalone="no"?>
<!DOCTYPE svg PUBLIC "-//W3C//DTD SVG 1.1//EN" "http://www.w3.org/Graphics/SVG/1.1/DTD/svg11.dtd">
<svg width="100%" height="100%" viewBox="0 0 26 26" version="1.1" xmlns="http://www.w3.org/2000/svg" xmlns:xlink="http://www.w3.org/1999/xlink" xml:space="preserve" xmlns:serif="http://www.serif.com/" style="fill-rule:evenodd;clip-rule:evenodd;stroke-linejoin:round;stroke-miterlimit:2;">
    <g transform="matrix(1.2,0,0,1.2,-2.6,-2.70833)">
        <path d="M21.667,3.25L20.583,3.25L20.583,17.333L21.667,17.333C22.855,17.333 23.833,16.355 23.833,15.167L23.833,5.417C23.833,4.228 22.855,3.25 21.667,3.25ZM4.333,17.333L11.917,17.333L10.701,20.982C10.628,21.203 10.59,21.434 10.59,21.667C10.59,22.855 11.568,23.833 12.756,23.833L13,23.833L18.417,17.942L18.417,3.25L6.5,3.25L2.235,12.62L2.167,12.937L2.167,15.167C2.167,16.355 3.145,17.333 4.333,17.333Z" style="fill:rgb(172,172,172);fill-rule:nonzero;"/>
    </g>
</svg>
