<?xml version="1.0" encoding="UTF-8" standalone="no"?>
<!DOCTYPE svg PUBLIC "-//W3C//DTD SVG 1.1//EN" "http://www.w3.org/Graphics/SVG/1.1/DTD/svg11.dtd">
<svg width="100%" height="100%" viewBox="0 0 102 29" version="1.1" xmlns="http://www.w3.org/2000/svg" xmlns:xlink="http://www.w3.org/1999/xlink" xml:space="preserve" xmlns:serif="http://www.serif.com/" style="fill-rule:evenodd;clip-rule:evenodd;stroke-linejoin:round;stroke-miterlimit:2;">
    <g transform="matrix(0.0566406,0,0,0.0566406,36.5,0)">
        <path d="M248.837,108.447C170.808,112.159 109.233,177.143 109.468,255.258C109.54,279.05 115.284,301.507 125.418,321.353L109.861,396.867C109.02,400.953 112.704,404.53 116.762,403.568L190.757,386.038C209.768,395.509 231.121,400.977 253.719,401.322C333.472,402.541 399.97,339.217 402.459,259.493C405.121,174.035 334.591,104.362 248.837,108.447ZM337.13,335.936C315.461,357.605 286.647,369.54 256,369.54C238.056,369.54 220.874,365.513 204.934,357.574L194.632,352.44L149.262,363.187L158.811,316.831L153.736,306.888C145.46,290.682 141.264,273.16 141.264,254.804C141.264,224.156 153.199,195.345 174.868,173.674C196.344,152.196 225.627,140.07 256.002,140.07C286.646,140.07 315.46,152.005 337.129,173.674C358.798,195.343 370.733,224.157 370.733,254.801C370.735,285.177 358.607,314.459 337.13,335.936Z" style="fill:white;fill-rule:nonzero;"/>
    </g>
    <g transform="matrix(0.0566406,0,0,0.0566406,36.5,0)">
        <path d="M327.115,286.582L298.731,278.433C295.005,277.366 290.979,278.427 288.263,281.193L281.321,288.263C278.395,291.247 273.955,292.204 270.081,290.637C256.654,285.203 228.409,260.089 221.2,247.531C219.116,243.907 219.461,239.379 222.017,236.069L228.075,228.23C230.445,225.163 230.947,221.029 229.38,217.483L217.439,190.475C214.579,184.007 206.313,182.123 200.912,186.691C192.991,193.392 183.592,203.571 182.451,214.851C180.436,234.738 188.966,259.805 221.213,289.906C258.47,324.684 288.307,329.275 307.736,324.57C318.755,321.903 327.561,311.205 333.115,302.444C336.906,296.467 333.91,288.535 327.115,286.582Z" style="fill:white;fill-rule:nonzero;"/>
    </g>
</svg>
