<?xml version="1.0" encoding="UTF-8" standalone="no"?>
<!DOCTYPE svg PUBLIC "-//W3C//DTD SVG 1.1//EN" "http://www.w3.org/Graphics/SVG/1.1/DTD/svg11.dtd">
<svg width="100%" height="100%" viewBox="0 0 128 128" version="1.1" xmlns="http://www.w3.org/2000/svg"
 xmlns:xlink="http://www.w3.org/1999/xlink" xml:space="preserve" xmlns:serif="http://www.serif.com/" 
 style="fill-rule:evenodd;clip-rule:evenodd;stroke-linejoin:round;stroke-miterlimit:2;">
    <path style="fill:black;fill-rule:nonzero;" d="M53.333,96C62.798,95.998 71.995,92.828 79.451,86.997L102.896,110.443L110.437,102.901L86.992,79.456C92.826,72 95.998,62.8 96,53.333C96,29.808 76.859,10.667 53.333,10.667C29.808,10.667 10.667,29.808 10.667,53.333C10.667,76.859 29.808,96 53.333,96ZM53.333,21.333C70.981,21.333 85.333,35.685 85.333,53.333C85.333,70.981 70.981,85.333 53.333,85.333C35.685,85.333 21.333,70.981 21.333,53.333C21.333,35.685 35.685,21.333 53.333,21.333Z" />
   
</svg>