<?xml version="1.0" encoding="UTF-8" standalone="no"?>
<!DOCTYPE svg PUBLIC "-//W3C//DTD SVG 1.1//EN" "http://www.w3.org/Graphics/SVG/1.1/DTD/svg11.dtd">
<svg width="100%" height="100%" viewBox="0 0 18 18" version="1.1" xmlns="http://www.w3.org/2000/svg" xmlns:xlink="http://www.w3.org/1999/xlink" xml:space="preserve" xmlns:serif="http://www.serif.com/" style="fill-rule:evenodd;clip-rule:evenodd;stroke-linejoin:round;stroke-miterlimit:2;">
    <g transform="matrix(0.0580645,0,0,0.0580645,0,0)">
        <path d="M81.703,165.106L115.684,165.106L115.684,305C115.684,307.743 117.941,310 120.684,310L178.3,310C181.043,310 183.3,307.743 183.3,305L183.3,165.765L222.364,165.765C224.892,165.765 227.042,163.847 227.331,161.336L233.264,109.834C233.286,109.644 233.297,109.453 233.297,109.262C233.297,106.52 231.04,104.263 228.298,104.262L183.302,104.262L183.302,71.978C183.302,62.246 188.542,57.311 198.878,57.311L228.298,57.311C231.041,57.311 233.298,55.054 233.298,52.311L233.298,5.037C233.298,2.294 231.041,0.037 228.298,0.037L187.753,0.037C187.134,0.01 186.515,-0.002 185.896,0C178.861,0 154.408,1.381 135.092,19.151C113.69,38.843 116.665,62.421 117.376,66.509L117.376,104.261L81.703,104.261C78.96,104.261 76.703,106.518 76.703,109.261L76.703,160.105C76.703,160.105 76.703,160.106 76.703,160.106C76.703,162.849 78.96,165.106 81.703,165.106Z" style="fill:white;fill-rule:nonzero;"/>
    </g>
</svg>
