<?xml version="1.0" encoding="UTF-8" standalone="no"?>
<!DOCTYPE svg PUBLIC "-//W3C//DTD SVG 1.1//EN" "http://www.w3.org/Graphics/SVG/1.1/DTD/svg11.dtd">
<svg width="100%" height="100%" viewBox="0 0 18 18" version="1.1" xmlns="http://www.w3.org/2000/svg" xmlns:xlink="http://www.w3.org/1999/xlink" xml:space="preserve" xmlns:serif="http://www.serif.com/" style="fill-rule:evenodd;clip-rule:evenodd;stroke-linejoin:round;stroke-miterlimit:2;">
    <g transform="matrix(0.391304,0,0,0.391304,0,0)">
        <path d="M23,0C16.748,0 15.969,0.03 13.523,0.134C11.066,0.254 9.404,0.635 7.938,1.205C6.426,1.797 5.138,2.583 3.865,3.863C2.585,5.135 1.791,6.423 1.208,7.935C0.638,9.401 0.257,11.063 0.137,13.52C0.026,15.968 0.003,16.745 0.003,22.997C0.003,29.249 0.033,30.028 0.137,32.475C0.257,34.924 0.638,36.593 1.208,38.059C1.8,39.572 2.586,40.859 3.865,42.132C5.138,43.412 6.426,44.206 7.938,44.79C9.404,45.352 11.073,45.74 13.523,45.861C15.971,45.971 16.748,45.994 23,45.994C29.252,45.994 30.031,45.964 32.477,45.861C34.927,45.74 36.596,45.35 38.062,44.79C39.574,44.197 40.862,43.411 42.135,42.132C43.415,40.859 44.209,39.579 44.792,38.059C45.355,36.593 45.743,34.924 45.863,32.475C45.974,30.027 45.997,29.249 45.997,22.997C45.997,16.745 45.967,15.966 45.863,13.52C45.743,11.07 45.353,9.393 44.792,7.935C44.2,6.423 43.414,5.135 42.135,3.863C40.862,2.582 39.582,1.788 38.062,1.205C36.596,0.635 34.927,0.254 32.477,0.134C30.029,0.023 29.252,0 23,0ZM23,4.14C29.14,4.14 29.873,4.17 32.299,4.274C34.537,4.379 35.756,4.752 36.566,5.069C37.645,5.487 38.4,5.981 39.216,6.789C40.017,7.59 40.512,8.353 40.93,9.433C41.246,10.242 41.62,11.461 41.725,13.699C41.828,16.126 41.859,16.86 41.859,22.999C41.859,29.137 41.828,29.871 41.716,32.298C41.596,34.536 41.222,35.755 40.907,36.564C40.471,37.644 39.986,38.399 39.183,39.215C38.374,40.016 37.604,40.51 36.533,40.929C35.733,41.245 34.497,41.619 32.25,41.723C29.811,41.827 29.092,41.857 22.937,41.857C16.781,41.857 16.064,41.827 13.622,41.715C11.384,41.594 10.149,41.22 9.339,40.906C8.247,40.47 7.498,39.984 6.696,39.182C5.887,38.373 5.372,37.602 4.975,36.531C4.653,35.732 4.285,34.496 4.166,32.249C4.084,29.838 4.045,29.091 4.045,22.964C4.045,16.84 4.084,16.091 4.166,13.651C4.285,11.404 4.653,10.17 4.975,9.368C5.372,8.274 5.888,7.527 6.696,6.717C7.497,5.917 8.247,5.399 9.339,4.994C10.149,4.679 11.353,4.305 13.6,4.193C16.04,4.106 16.758,4.074 22.905,4.074L23,4.14ZM23,11.194C16.472,11.194 11.194,16.48 11.194,23C11.194,29.528 16.48,34.806 23,34.806C29.528,34.806 34.806,29.521 34.806,23C34.806,16.472 29.521,11.194 23,11.194ZM23,30.666C18.762,30.666 15.334,27.238 15.334,23C15.334,18.762 18.762,15.334 23,15.334C27.238,15.334 30.666,18.762 30.666,23C30.666,27.238 27.238,30.666 23,30.666ZM38.042,10.722C38.042,12.25 36.799,13.484 35.278,13.484C33.75,13.484 32.516,12.249 32.516,10.722C32.516,9.203 33.758,7.967 35.278,7.967C36.797,7.967 38.042,9.203 38.042,10.722Z" style="fill:white;fill-rule:nonzero;"/>
    </g>
</svg>
