<?xml version="1.0" encoding="UTF-8" standalone="no"?>
<!DOCTYPE svg PUBLIC "-//W3C//DTD SVG 1.1//EN" "http://www.w3.org/Graphics/SVG/1.1/DTD/svg11.dtd">
<svg width="100%" height="100%" viewBox="0 0 10 10" version="1.1" xmlns="http://www.w3.org/2000/svg" xmlns:xlink="http://www.w3.org/1999/xlink" xml:space="preserve" xmlns:serif="http://www.serif.com/" style="fill-rule:evenodd;clip-rule:evenodd;stroke-linejoin:round;stroke-miterlimit:2;">
    <g transform="matrix(0.156233,0,0,0.156233,-4.99888,-4.99944)">
        <path d="M64,32C66.194,32 68,33.806 68,36L68,82.344L85.168,65.168C85.919,64.417 86.938,63.995 88,63.995C90.197,63.995 92.005,65.803 92.005,68C92.005,69.062 91.583,70.081 90.832,70.832L66.832,94.832C66.082,95.584 65.062,96.007 64,96.007C62.938,96.007 61.918,95.584 61.168,94.832L37.168,70.832C36.417,70.081 35.995,69.062 35.995,68C35.995,65.803 37.803,63.995 40,63.995C41.062,63.995 42.081,64.417 42.832,65.168L60,82.344L60,36C60,33.806 61.806,32 64,32Z" style="fill:rgb(251,17,17);"/>
    </g>
</svg>
