<?xml version="1.0" encoding="UTF-8" standalone="no"?>
<!DOCTYPE svg PUBLIC "-//W3C//DTD SVG 1.1//EN" "http://www.w3.org/Graphics/SVG/1.1/DTD/svg11.dtd">
<svg width="100%" height="100%" viewBox="0 0 53 53" version="1.1" xmlns="http://www.w3.org/2000/svg" xmlns:xlink="http://www.w3.org/1999/xlink" xml:space="preserve" xmlns:serif="http://www.serif.com/" style="fill-rule:evenodd;clip-rule:evenodd;stroke-linejoin:round;stroke-miterlimit:2;">
    <g transform="matrix(0.6625,0,0,0.6625,-5.3,-5.3)">
        <path d="M60,24C66.391,24 71.615,28.996 71.98,35.295L72,36L72,76C72,82.391 67.004,87.615 60.705,87.98L60,88L20,88C13.609,88 8.385,83.004 8.02,76.705L8,76L8,36C8,29.609 12.996,24.385 19.295,24.02L20,24L60,24ZM64,59.048L51.073,74.561C49.675,76.239 47.219,76.465 45.544,75.158L45.172,74.828L36,65.66L21.656,80L60,80C62.051,80 63.742,78.456 63.973,76.466L64,76L64,59.048ZM76,8C82.391,8 87.615,12.996 87.98,19.295L88,20L88,72C88,74.209 86.209,76 84,76C81.949,76 80.258,74.456 80.027,72.466L80,72L80,20C80,17.949 78.456,16.258 76.466,16.027L76,16L24,16C21.791,16 20,14.209 20,12C20,9.949 21.544,8.258 23.534,8.027L24,8L76,8ZM60,32L20,32C17.949,32 16.258,33.544 16.027,35.534L16,36L16,74.336L33.172,57.172C34.614,55.73 36.882,55.619 38.452,56.839L38.828,57.172L47.728,66.068L64,46.544L64,36C64,33.949 62.456,32.258 60.466,32.027L60,32ZM26,36C29.314,36 32,38.686 32,42C32,45.314 29.314,48 26,48C22.686,48 20,45.314 20,42C20,38.686 22.686,36 26,36Z" style="fill:white;fill-rule:nonzero;"/>
    </g>
</svg>
