<?xml version="1.0" encoding="UTF-8" standalone="no"?>
<!DOCTYPE svg PUBLIC "-//W3C//DTD SVG 1.1//EN" "http://www.w3.org/Graphics/SVG/1.1/DTD/svg11.dtd">
<svg width="100%" height="100%" viewBox="0 0 26 26" version="1.1" xmlns="http://www.w3.org/2000/svg" xmlns:xlink="http://www.w3.org/1999/xlink" xml:space="preserve" xmlns:serif="http://www.serif.com/" style="fill-rule:evenodd;clip-rule:evenodd;stroke-linejoin:round;stroke-miterlimit:2;">
    <g transform="matrix(-1.23075,-1.50723e-16,1.50723e-16,-1.23075,27.9995,31.0009)">
        <path d="M9.622,19.338L2.199,14.007C1.843,13.798 1.625,13.414 1.625,13.002C1.625,12.589 1.843,12.206 2.199,11.996L9.622,6.662C9.8,6.557 10.004,6.502 10.212,6.502C10.85,6.502 11.375,7.027 11.375,7.665C11.375,7.666 11.375,7.667 11.375,7.668L11.375,9.75C13.813,9.75 21.125,9.75 22.75,22.75C18.688,15.438 11.375,16.25 11.375,16.25L11.375,18.332C11.375,19.242 10.39,19.791 9.622,19.339L9.622,19.338Z" style="fill:rgb(172,172,172);fill-rule:nonzero;"/>
    </g>
</svg>
