<?xml version="1.0" encoding="UTF-8" standalone="no"?>
<!DOCTYPE svg PUBLIC "-//W3C//DTD SVG 1.1//EN" "http://www.w3.org/Graphics/SVG/1.1/DTD/svg11.dtd">
<svg width="100%" height="100%" viewBox="0 0 102 29" version="1.1" xmlns="http://www.w3.org/2000/svg" xmlns:xlink="http://www.w3.org/1999/xlink" xml:space="preserve" xmlns:serif="http://www.serif.com/" style="fill-rule:evenodd;clip-rule:evenodd;stroke-linejoin:round;stroke-miterlimit:2;">
    <g transform="matrix(0.738461,0,0,0.738461,41.4,4.9)">
        <path d="M7.583,6.5L7.583,3.25C7.583,2.656 8.072,2.167 8.667,2.167L21.667,2.167C22.261,2.167 22.75,2.656 22.75,3.25L22.75,18.417C22.75,19.011 22.261,19.5 21.667,19.5L18.417,19.5L18.417,22.75C18.417,23.348 17.929,23.833 17.326,23.833L4.341,23.833C4.339,23.833 4.337,23.833 4.334,23.833C3.74,23.833 3.251,23.344 3.25,22.75L3.253,7.583C3.253,6.985 3.741,6.5 4.344,6.5L7.583,6.5ZM9.75,6.5L18.417,6.5L18.417,17.333L20.583,17.333L20.583,4.333L9.75,4.333L9.75,6.5Z" style="fill:white;fill-rule:nonzero;"/>
    </g>
</svg>
