<?xml version="1.0" encoding="UTF-8" standalone="no"?>
<!DOCTYPE svg PUBLIC "-//W3C//DTD SVG 1.1//EN" "http://www.w3.org/Graphics/SVG/1.1/DTD/svg11.dtd">
<svg width="100%" height="100%" viewBox="0 0 102 29" version="1.1" xmlns="http://www.w3.org/2000/svg" xmlns:xlink="http://www.w3.org/1999/xlink" xml:space="preserve" xmlns:serif="http://www.serif.com/" style="fill-rule:evenodd;clip-rule:evenodd;stroke-linejoin:round;stroke-miterlimit:2;">
    <g transform="matrix(1,0,0,1,-249,-210.5)">
        <g transform="matrix(0.192391,0,0,0.192391,242.263,182.654)">
            <path d="M106.4,214.2L106.4,222.5L126.3,222.5C125.7,227.2 124.1,230.6 121.8,233C118.9,235.9 114.3,239.1 106.4,239.1C94.1,239.1 84.5,229.2 84.5,216.9C84.5,204.6 94.1,194.7 106.4,194.7C113,194.7 117.9,197.3 121.4,200.7L127.3,194.8C122.3,190 115.7,186.3 106.4,186.3C89.6,186.3 75.4,200 75.4,216.8C75.4,233.6 89.5,247.3 106.4,247.3C115.5,247.3 122.3,244.3 127.7,238.8C133.2,233.3 134.9,225.5 134.9,219.3C134.9,217.4 134.8,215.6 134.5,214.1C134.4,214.2 106.4,214.2 106.4,214.2Z" style="fill:rgb(81,123,189);fill-rule:nonzero;"/>
        </g>
        <g transform="matrix(0.192391,0,0,0.192391,242.263,182.654)">
            <path d="M159.8,207.4C148.9,207.4 140,215.7 140,227.1C140,238.4 148.9,246.8 159.8,246.8C170.7,246.8 179.6,238.5 179.6,227.1C179.6,215.6 170.7,207.4 159.8,207.4ZM159.8,239C153.8,239 148.7,234.1 148.7,227.1C148.7,220 153.9,215.2 159.8,215.2C165.7,215.2 170.9,220.1 170.9,227.1C170.9,234.1 165.8,239 159.8,239Z" style="fill:rgb(232,67,54);fill-rule:nonzero;"/>
        </g>
        <g transform="matrix(0.192391,0,0,0.192391,242.263,182.654)">
            <path d="M256.9,211.8L256.5,211.8C254.6,209.5 250.8,207.4 246.1,207.4C236.3,207.4 227.7,216 227.7,227.1C227.7,238.2 236.3,246.8 246.1,246.8C250.8,246.8 254.5,244.7 256.5,242.3L256.8,242.3L256.8,245C256.8,252.5 252.8,256.6 246.3,256.6C241,256.6 237.7,252.8 236.4,249.6L228.9,252.7C231.1,257.9 236.8,264.3 246.4,264.3C256.5,264.3 265.1,258.3 265.1,243.8L265.1,208.4L256.9,208.4L256.9,211.8ZM246.8,239C240.8,239 236.3,233.9 236.3,227.1C236.3,220.1 240.8,215.2 246.8,215.2C252.7,215.2 257.3,220.3 257.3,227.2C257.4,234 252.7,239 246.8,239Z" style="fill:rgb(81,123,189);fill-rule:nonzero;"/>
        </g>
        <g transform="matrix(0.192391,0,0,0.192391,242.263,182.654)">
            <path d="M203.9,207.4C193,207.4 184.1,215.7 184.1,227.1C184.1,238.4 193,246.8 203.9,246.8C214.8,246.8 223.7,238.5 223.7,227.1C223.7,215.6 214.8,207.4 203.9,207.4ZM203.9,239C197.9,239 192.8,234.1 192.8,227.1C192.8,220 198,215.2 203.9,215.2C209.9,215.2 215,220.1 215,227.1C215,234.1 209.9,239 203.9,239Z" style="fill:rgb(251,188,10);fill-rule:nonzero;"/>
        </g>
        <g transform="matrix(0.192391,0,0,0.192391,242.263,182.654)">
            <rect x="271.8" y="187.2" width="8.5" height="59.6" style="fill:rgb(49,168,83);fill-rule:nonzero;"/>
        </g>
        <g transform="matrix(0.192391,0,0,0.192391,242.263,182.654)">
            <path d="M306.6,239C302.2,239 299.1,237 297,233L323.4,222.1L322.5,219.9C320.9,215.5 315.8,207.3 305.6,207.3C295.5,207.3 287,215.3 287,227C287,238.1 295.3,246.7 306.5,246.7C315.5,246.7 320.7,241.2 322.9,238L316.2,233.5C314,236.9 311,239 306.6,239ZM305.9,214.8C309.4,214.8 312.4,216.6 313.4,219.1L295.6,226.5C295.6,218.2 301.5,214.8 305.9,214.8Z" style="fill:rgb(232,67,54);fill-rule:nonzero;"/>
        </g>
        <g transform="matrix(0.192391,0,0,0.192391,242.263,182.654)">
            <path d="M347.9,247.2L347.9,193.2L356.3,193.2L382.6,235.2L382.9,235.2L382.6,224.8L382.6,193.2L389.5,193.2L389.5,247.2L382.3,247.2L354.8,203.1L354.5,203.1L354.8,213.5L354.8,247.1L347.9,247.1L347.9,247.2ZM416,248.5C410.4,248.5 405.9,246.6 402.4,242.9C398.9,239.2 397.2,234.5 397.2,228.8C397.2,223.4 398.9,218.8 402.3,214.9C405.7,211 410,209.1 415.3,209.1C420.8,209.1 425.2,210.9 428.5,214.5C431.8,218.1 433.4,222.9 433.4,228.8L433.3,230.1L404.1,230.1C404.3,233.8 405.5,236.8 407.8,238.9C410.1,241.1 412.8,242.1 415.8,242.1C420.8,242.1 424.1,240 425.9,235.8L432.1,238.4C430.9,241.3 428.9,243.7 426.1,245.6C423.4,247.5 420,248.5 416,248.5ZM426,224.3C425.8,222.2 424.9,220.2 423.1,218.3C421.3,216.4 418.7,215.4 415.1,215.4C412.5,215.4 410.3,216.2 408.4,217.8C406.5,219.4 405.2,221.6 404.5,224.3L426,224.3ZM480.1,247.2L473,247.2L463.8,218.8L454.7,247.2L447.7,247.2L435.8,210.2L443,210.2L451.2,238.1L451.3,238.1L460.4,210.2L467.6,210.2L476.7,238.1L476.8,238.1L484.9,210.2L492,210.2L480.1,247.2ZM510.3,248.5C506.2,248.5 502.8,247.5 500.1,245.5C497.5,243.6 495.4,241 494.2,238L500.4,235.4C502.4,240 505.7,242.3 510.4,242.3C512.6,242.3 514.3,241.8 515.7,240.9C517.1,239.9 517.8,238.7 517.8,237.1C517.8,234.7 516.1,233.1 512.7,232.2L505.2,230.4C502.8,229.8 500.6,228.7 498.5,227C496.4,225.3 495.3,223 495.3,220.2C495.3,216.9 496.7,214.3 499.6,212.2C502.5,210.2 505.9,209.1 509.9,209.1C513.2,209.1 516.1,209.8 518.7,211.3C521.2,212.7 523.2,215 524.2,217.7L518.2,220.2C516.8,216.9 514,215.3 509.7,215.3C507.6,215.3 505.9,215.7 504.5,216.6C503.1,217.5 502.4,218.6 502.4,220.1C502.4,222.2 504,223.6 507.3,224.4L514.6,226.1C518.1,226.9 520.6,228.3 522.3,230.2C524,232.2 524.8,234.4 524.8,236.8C524.8,240.1 523.4,242.9 520.7,245.1C518.1,247.4 514.6,248.5 510.3,248.5Z" style="fill:rgb(95,99,105);fill-rule:nonzero;"/>
        </g>
    </g>
</svg>
