<?xml version="1.0" encoding="UTF-8" standalone="no"?>
<!DOCTYPE svg PUBLIC "-//W3C//DTD SVG 1.1//EN" "http://www.w3.org/Graphics/SVG/1.1/DTD/svg11.dtd">
<svg width="100%" height="100%" viewBox="0 0 104 41" version="1.1" xmlns="http://www.w3.org/2000/svg" xmlns:xlink="http://www.w3.org/1999/xlink" xml:space="preserve" xmlns:serif="http://www.serif.com/" style="fill-rule:evenodd;clip-rule:evenodd;stroke-linejoin:round;stroke-miterlimit:2;">
    <g id="logo" transform="matrix(1,0,0,1,-690,-66)">
        <path d="M794,69C794,67.344 792.656,66 791,66L693,66C691.344,66 690,67.344 690,69L690,104C690,105.656 691.344,107 693,107L791,107C792.656,107 794,105.656 794,104L794,69Z" style="fill:white;"/>
        <g id="iNEWS" transform="matrix(1,0,0,1,699,96)">
            <path d="M5.418,-15.974C4.923,-15.479 4.331,-15.232 3.64,-15.232C2.949,-15.232 2.357,-15.479 1.862,-15.974C1.367,-16.469 1.12,-17.061 1.12,-17.752C1.12,-18.443 1.367,-19.035 1.862,-19.53C2.357,-20.025 2.949,-20.272 3.64,-20.272C4.331,-20.272 4.923,-20.025 5.418,-19.53C5.913,-19.035 6.16,-18.443 6.16,-17.752C6.16,-17.061 5.913,-16.469 5.418,-15.974ZM1.54,0L1.54,-14L5.74,-14L5.74,0L1.54,0Z" style="fill-rule:nonzero;"/>
            <path d="M19.88,-19.6L24.36,-19.6L24.36,0L21,0L13.44,-10.64L13.44,0L8.96,0L8.96,-19.6L12.32,-19.6L19.88,-8.96L19.88,-19.6Z" style="fill-rule:nonzero;"/>
            <path d="M32.2,-4.312L40.04,-4.312L40.04,0L27.72,0L27.72,-19.6L39.9,-19.6L39.9,-15.288L32.2,-15.288L32.2,-12.04L39.2,-12.04L39.2,-7.784L32.2,-7.784L32.2,-4.312Z" style="fill-rule:nonzero;"/>
            <path d="M46.564,0L41.16,-19.6L45.864,-19.6L49.252,-5.88L53.032,-19.6L56.652,-19.6L60.434,-5.875L63.84,-19.6L68.544,-19.6L63.14,0L58.044,0L54.842,-11.622L51.64,0L46.564,0Z" style="fill-rule:nonzero;"/>
            <path d="M76.804,0.392C74.807,0.392 73.141,-0.042 71.806,-0.91C70.471,-1.778 69.524,-2.959 68.964,-4.452L72.828,-6.692C73.612,-4.881 74.984,-3.976 76.944,-3.976C78.717,-3.976 79.604,-4.508 79.604,-5.572C79.604,-6.151 79.319,-6.603 78.75,-6.93C78.181,-7.257 77.112,-7.635 75.544,-8.064C74.723,-8.288 74.004,-8.54 73.388,-8.82C72.772,-9.1 72.17,-9.469 71.582,-9.926C70.994,-10.383 70.546,-10.957 70.238,-11.648C69.93,-12.339 69.776,-13.132 69.776,-14.028C69.776,-15.839 70.425,-17.285 71.722,-18.368C73.019,-19.451 74.564,-19.992 76.356,-19.992C77.961,-19.992 79.38,-19.614 80.612,-18.858C81.844,-18.102 82.815,-17.005 83.524,-15.568L79.744,-13.356C79.389,-14.103 78.951,-14.667 78.428,-15.05C77.905,-15.433 77.215,-15.624 76.356,-15.624C75.684,-15.624 75.166,-15.479 74.802,-15.19C74.438,-14.901 74.256,-14.551 74.256,-14.14C74.256,-13.655 74.485,-13.235 74.942,-12.88C75.399,-12.525 76.347,-12.133 77.784,-11.704C78.568,-11.461 79.175,-11.265 79.604,-11.116C80.033,-10.967 80.579,-10.719 81.242,-10.374C81.905,-10.029 82.409,-9.665 82.754,-9.282C83.099,-8.899 83.407,-8.395 83.678,-7.77C83.949,-7.145 84.084,-6.431 84.084,-5.628C84.084,-3.761 83.412,-2.291 82.068,-1.218C80.724,-0.145 78.969,0.392 76.804,0.392Z" style="fill-rule:nonzero;"/>
        </g>
    </g>
</svg>
